<?xml version="1.0" encoding="UTF-8" standalone="no"?>
<!-- Created with Inkscape (http://www.inkscape.org/) -->

<svg
   xmlns:dc="http://purl.org/dc/elements/1.1/"
   xmlns:cc="http://creativecommons.org/ns#"
   xmlns:rdf="http://www.w3.org/1999/02/22-rdf-syntax-ns#"
   xmlns:svg="http://www.w3.org/2000/svg"
   xmlns="http://www.w3.org/2000/svg"
   xmlns:sodipodi="http://sodipodi.sourceforge.net/DTD/sodipodi-0.dtd"
   xmlns:inkscape="http://www.inkscape.org/namespaces/inkscape"
   width="376"
   height="191"
   id="svg147914"
   version="1.1"
   inkscape:version="0.48.5 r10040"
   sodipodi:docname="bain_corium_croute.eps">
  <sodipodi:namedview
     id="base"
     pagecolor="#ffffff"
     bordercolor="#666666"
     borderopacity="1.0"
     inkscape:pageopacity="0.0"
     inkscape:pageshadow="2"
     inkscape:zoom="1.979899"
     inkscape:cx="33.792975"
     inkscape:cy="102.42072"
     inkscape:document-units="px"
     inkscape:current-layer="layer1"
     showgrid="false"
     inkscape:window-width="1920"
     inkscape:window-height="1014"
     inkscape:window-x="0"
     inkscape:window-y="27"
     inkscape:window-maximized="1"
     fit-margin-top="0"
     fit-margin-left="0"
     fit-margin-right="0"
     fit-margin-bottom="0">
    <inkscape:grid
       type="xygrid"
       id="grid147949"
       empspacing="5"
       visible="true"
       enabled="true"
       snapvisiblegridlinesonly="true"
       originx="-139.5px"
       originy="-349.48718px" />
  </sodipodi:namedview>
  <defs
     id="defs147916" />
  <metadata
     id="metadata147919">
    <rdf:RDF>
      <cc:Work
         rdf:about="">
        <dc:format>image/svg+xml</dc:format>
        <dc:type
           rdf:resource="http://purl.org/dc/dcmitype/StillImage" />
        <dc:title></dc:title>
      </cc:Work>
    </rdf:RDF>
  </metadata>
  <g
     inkscape:label="Layer 1"
     inkscape:groupmode="layer"
     id="layer1"
     transform="translate(-139.5,-511.875)">
    <path
       id="path147969"
       style="fill:#9f3c00;fill-opacity:1;stroke:#000000;stroke-width:1px;stroke-linecap:butt;stroke-linejoin:miter;stroke-opacity:1"
       d="m 505,557.36218 c 0,0 -34.48341,135 -180,135 -144.08348,0 -175,-135 -175,-135 m -10,0 0,-45 10,0 0,45 m -10,0 c 0,0 23.49139,145 185,145 162.18411,0 190,-145 190,-145 0,-45 0,-45 0,-45 l -10,0 0,45"
       inkscape:connector-curvature="0"
       sodipodi:nodetypes="csccccsccc" />
    <path
       style="fill:#ffac7a;fill-opacity:1;stroke:none"
       d="m 151.1894,527.36218 352.58963,0 0.0473,25 0.0474,4.87368 c 0,0 -35.9193,133.78321 -178.78433,133.78321 -140.82446,0 -173.80529,-133.64115 -173.80529,-133.64115 l -0.0473,-5.01574 z"
       id="path148889"
       inkscape:connector-curvature="0"
       sodipodi:nodetypes="ccccsccc" />
    <rect
       style="color:#000000;fill:#9f3c00;fill-opacity:1;stroke:none;stroke-width:1.36000001;marker:none;visibility:visible;display:inline;overflow:visible;enable-background:accumulate"
       id="rect3886"
       width="352.5"
       height="4.6428571"
       x="151.64285"
       y="545.30359" />
    <text
       xml:space="preserve"
       style="font-size:40px;font-style:normal;font-weight:normal;line-height:125%;letter-spacing:0px;word-spacing:0px;fill:#000000;fill-opacity:1;stroke:none;font-family:Sans"
       x="373.26932"
       y="540.15393"
       id="text149461"
       sodipodi:linespacing="125%"><tspan
         sodipodi:role="line"
         id="tspan149463"
         x="373.26932"
         y="540.15393"
         style="font-size:20px;font-style:normal;font-variant:normal;font-weight:bold;font-stretch:normal;font-family:URW Palladio L;-inkscape-font-specification:URW Palladio L Bold">Acier liquide</tspan></text>
    <path
       style="fill:none;stroke:#000000;stroke-width:1;stroke-linecap:butt;stroke-linejoin:miter;stroke-miterlimit:4;stroke-opacity:1;stroke-dasharray:4, 1;stroke-dashoffset:0"
       d="m 166,584.36218 322,0"
       id="path149465"
       inkscape:connector-curvature="0" />
    <path
       style="fill:none;stroke:#000000;stroke-width:1.08813453;stroke-linecap:butt;stroke-linejoin:miter;stroke-miterlimit:4;stroke-opacity:1;stroke-dasharray:4.35253822, 1.08813456;stroke-dashoffset:0"
       d="m 449.65401,639.36218 -242.65401,0"
       id="path149467"
       inkscape:connector-curvature="0" />
    <text
       xml:space="preserve"
       style="font-size:40px;font-style:normal;font-weight:normal;line-height:125%;letter-spacing:0px;word-spacing:0px;fill:#000000;fill-opacity:1;stroke:none;font-family:Sans"
       x="386.53006"
       y="570.64886"
       id="text149461-1"
       sodipodi:linespacing="125%"><tspan
         sodipodi:role="line"
         id="tspan149463-0"
         x="386.53006"
         y="570.64886"
         style="font-size:20px;font-style:normal;font-variant:normal;font-weight:bold;font-stretch:normal;font-family:URW Palladio L;-inkscape-font-specification:URW Palladio L Bold">Métal léger</tspan></text>
    <text
       xml:space="preserve"
       style="font-size:40px;font-style:normal;font-weight:normal;line-height:125%;letter-spacing:0px;word-spacing:0px;fill:#000000;fill-opacity:1;stroke:none;font-family:Sans"
       x="388.64523"
       y="607.02191"
       id="text149461-7"
       sodipodi:linespacing="125%"><tspan
         sodipodi:role="line"
         id="tspan149463-6"
         x="388.64523"
         y="607.02191"
         style="font-size:20px;font-style:normal;font-variant:normal;font-weight:bold;font-stretch:normal;font-family:URW Palladio L;-inkscape-font-specification:URW Palladio L Bold">Oxyde</tspan></text>
    <text
       xml:space="preserve"
       style="font-size:40px;font-style:normal;font-weight:normal;line-height:125%;letter-spacing:0px;word-spacing:0px;fill:#000000;fill-opacity:1;stroke:none;font-family:Sans"
       x="324.02313"
       y="657.57776"
       id="text149461-0"
       sodipodi:linespacing="125%"><tspan
         sodipodi:role="line"
         id="tspan149463-1"
         x="324.02313"
         y="657.57776"
         style="font-size:20px;font-style:normal;font-variant:normal;font-weight:bold;font-stretch:normal;font-family:URW Palladio L;-inkscape-font-specification:URW Palladio L Bold">Métal lourd</tspan></text>
    <text
       xml:space="preserve"
       style="font-size:40px;font-style:normal;font-weight:normal;line-height:125%;letter-spacing:0px;word-spacing:0px;fill:#a0a0a0;fill-opacity:1;stroke:none;font-family:Sans"
       x="480.67908"
       y="676.14612"
       id="text149461-0-0"
       sodipodi:linespacing="125%"><tspan
         sodipodi:role="line"
         id="tspan149463-1-2"
         x="480.67908"
         y="676.14612"
         style="font-size:20px;font-style:normal;font-variant:normal;font-weight:bold;font-stretch:normal;text-align:center;text-anchor:middle;fill:#000000;fill-opacity:1;stroke:none;font-family:URW Palladio L;-inkscape-font-specification:URW Palladio L Bold">Croûte</tspan><tspan
         sodipodi:role="line"
         x="480.67908"
         y="701.14612"
         style="font-size:20px;font-style:normal;font-variant:normal;font-weight:bold;font-stretch:normal;text-align:center;text-anchor:middle;fill:#000000;fill-opacity:1;stroke:none;font-family:URW Palladio L;-inkscape-font-specification:URW Palladio L Bold"
         id="tspan4815">maillée</tspan></text>
    <g
       id="g3812">
      <path
         sodipodi:nodetypes="cc"
         transform="translate(139.5,511.875)"
         inkscape:connector-curvature="0"
         id="path3930"
         d="m 0.63134533,7.4047749 9.72271867,0"
         style="fill:none;stroke:#595959;stroke-width:1.36000000000000010;stroke-linecap:butt;stroke-linejoin:miter;stroke-opacity:1;stroke-miterlimit:4;stroke-dasharray:none;stroke-dashoffset:0" />
      <path
         transform="translate(139.5,511.875)"
         inkscape:connector-curvature="0"
         id="path3932"
         d="m 0.88388348,15.359726 9.97525652,0"
         style="fill:none;stroke:#595959;stroke-width:1.36000000000000010;stroke-linecap:butt;stroke-linejoin:miter;stroke-opacity:1;stroke-miterlimit:4;stroke-dasharray:none;stroke-dashoffset:0" />
      <path
         sodipodi:nodetypes="cc"
         inkscape:connector-curvature="0"
         id="path3930-3"
         d="m 139.56313,534.17952 c 1.15632,-0.29597 11.63525,-0.007 10.72255,0"
         style="fill:none;stroke:#595959;stroke-width:1.36000000000000010;stroke-linecap:butt;stroke-linejoin:miter;stroke-opacity:1;stroke-miterlimit:4;stroke-dasharray:none;stroke-dashoffset:0" />
      <path
         sodipodi:nodetypes="cc"
         inkscape:connector-curvature="0"
         id="path3930-6"
         d="m 140.23465,541.23805 9.72272,0"
         style="fill:none;stroke:#595959;stroke-width:1.36000000000000010;stroke-linecap:butt;stroke-linejoin:miter;stroke-opacity:1;stroke-miterlimit:4;stroke-dasharray:none;stroke-dashoffset:0" />
      <path
         inkscape:connector-curvature="0"
         id="path3932-7"
         d="m 140.48719,549.193 9.97526,0"
         style="fill:none;stroke:#595959;stroke-width:1.36000000000000010;stroke-linecap:butt;stroke-linejoin:miter;stroke-opacity:1;stroke-miterlimit:4;stroke-dasharray:none;stroke-dashoffset:0" />
      <path
         sodipodi:nodetypes="cc"
         inkscape:connector-curvature="0"
         id="path3930-3-5"
         d="m 139.66644,556.1378 c 1.15632,-0.29597 11.63525,-0.007 10.72255,0"
         style="fill:none;stroke:#595959;stroke-width:1.36000000000000010;stroke-linecap:butt;stroke-linejoin:miter;stroke-opacity:1;stroke-miterlimit:4;stroke-dasharray:none;stroke-dashoffset:0" />
      <path
         transform="translate(139.5,511.875)"
         inkscape:connector-curvature="0"
         id="path3976"
         d="M 3.5355339,58.16494 13.637059,56.018366"
         style="fill:none;stroke:#595959;stroke-width:1.36000000000000010;stroke-linecap:butt;stroke-linejoin:miter;stroke-opacity:1;stroke-miterlimit:4;stroke-dasharray:none;stroke-dashoffset:0" />
      <path
         transform="translate(139.5,511.875)"
         inkscape:connector-curvature="0"
         id="path3978"
         d="M 9.0913729,74.832457 19.192898,70.665578"
         style="fill:none;stroke:#595959;stroke-width:1.36000000000000010;stroke-linecap:butt;stroke-linejoin:miter;stroke-opacity:1;stroke-miterlimit:4;stroke-dasharray:none;stroke-dashoffset:0" />
      <path
         transform="translate(139.5,511.875)"
         inkscape:connector-curvature="0"
         id="path3980"
         d="m 17.67767,93.39401 9.722718,-5.808377"
         style="fill:none;stroke:#595959;stroke-width:1.36000000000000010;stroke-linecap:butt;stroke-linejoin:miter;stroke-opacity:1;stroke-miterlimit:4;stroke-dasharray:none;stroke-dashoffset:0" />
      <path
         transform="translate(139.5,511.875)"
         inkscape:connector-curvature="0"
         id="path3982"
         d="m 22.854701,102.99046 9.47018,-6.692261"
         style="fill:none;stroke:#595959;stroke-width:1.36000000000000010;stroke-linecap:butt;stroke-linejoin:miter;stroke-opacity:1;stroke-miterlimit:4;stroke-dasharray:none;stroke-dashoffset:0" />
      <path
         transform="translate(139.5,511.875)"
         inkscape:connector-curvature="0"
         id="path3984"
         d="m 30.304576,114.85975 9.47018,-7.70241"
         style="fill:none;stroke:#595959;stroke-width:1.36000000000000010;stroke-linecap:butt;stroke-linejoin:miter;stroke-opacity:1;stroke-miterlimit:4;stroke-dasharray:none;stroke-dashoffset:0" />
      <path
         transform="translate(139.5,511.875)"
         inkscape:connector-curvature="0"
         id="path3986"
         d="m 43.436559,132.03235 8.712566,-8.83884"
         style="fill:none;stroke:#595959;stroke-width:1.36000000000000010;stroke-linecap:butt;stroke-linejoin:miter;stroke-opacity:1;stroke-miterlimit:4;stroke-dasharray:none;stroke-dashoffset:0" />
      <path
         transform="translate(139.5,511.875)"
         inkscape:connector-curvature="0"
         id="path3988"
         d="m 63.008265,150.5939 6.565992,-10.2278"
         style="fill:none;stroke:#595959;stroke-width:1.36000000000000010;stroke-linecap:butt;stroke-linejoin:miter;stroke-opacity:1;stroke-miterlimit:4;stroke-dasharray:none;stroke-dashoffset:0" />
      <path
         transform="translate(139.5,511.875)"
         inkscape:connector-curvature="0"
         id="path3990"
         d="m 115.40993,179.38325 4.67195,-10.2278"
         style="fill:none;stroke:#595959;stroke-width:1.36000000000000010;stroke-linecap:butt;stroke-linejoin:miter;stroke-opacity:1;stroke-miterlimit:4;stroke-dasharray:none;stroke-dashoffset:0" />
      <path
         transform="translate(139.5,511.875)"
         inkscape:connector-curvature="0"
         id="path3992"
         d="m 164.14979,189.61104 0.50507,-10.10153"
         style="fill:none;stroke:#595959;stroke-width:1.36000000000000010;stroke-linecap:butt;stroke-linejoin:miter;stroke-opacity:1;stroke-miterlimit:4;stroke-dasharray:none;stroke-dashoffset:0" />
      <path
         transform="translate(139.5,511.875)"
         inkscape:connector-curvature="0"
         id="path3994"
         d="m 190.79256,190.11612 -0.75761,-10.2278"
         style="fill:none;stroke:#595959;stroke-width:1.36000000000000010;stroke-linecap:butt;stroke-linejoin:miter;stroke-opacity:1;stroke-miterlimit:4;stroke-dasharray:none;stroke-dashoffset:0" />
      <path
         transform="translate(139.5,511.875)"
         inkscape:connector-curvature="0"
         id="path3996"
         d="m 214.02607,188.72716 -1.38896,-9.84899"
         style="fill:none;stroke:#595959;stroke-width:1.36000000000000010;stroke-linecap:butt;stroke-linejoin:miter;stroke-opacity:1;stroke-miterlimit:4;stroke-dasharray:none;stroke-dashoffset:0" />
      <path
         transform="translate(139.5,511.875)"
         inkscape:connector-curvature="0"
         id="path3998"
         d="M 243.06796,183.55012 240.0375,173.19606"
         style="fill:none;stroke:#595959;stroke-width:1.36000000000000010;stroke-linecap:butt;stroke-linejoin:miter;stroke-opacity:1;stroke-miterlimit:4;stroke-dasharray:none;stroke-dashoffset:0" />
      <path
         transform="translate(139.5,511.875)"
         inkscape:connector-curvature="0"
         id="path4000"
         d="m 272.61492,173.4486 -5.80838,-10.22779"
         style="fill:none;stroke:#595959;stroke-width:1.36000000000000010;stroke-linecap:butt;stroke-linejoin:miter;stroke-opacity:1;stroke-miterlimit:4;stroke-dasharray:none;stroke-dashoffset:0" />
      <path
         transform="translate(139.5,511.875)"
         inkscape:connector-curvature="0"
         id="path4002"
         d="m 302.03561,156.27601 -8.20749,-8.83884"
         style="fill:none;stroke:#595959;stroke-width:1.36000000000000010;stroke-linecap:butt;stroke-linejoin:miter;stroke-opacity:1;stroke-miterlimit:4;stroke-dasharray:none;stroke-dashoffset:0" />
      <path
         transform="translate(139.5,511.875)"
         inkscape:connector-curvature="0"
         id="path4004"
         d="m 321.73359,140.11357 -9.34392,-7.70242"
         style="fill:none;stroke:#595959;stroke-width:1.36000000000000010;stroke-linecap:butt;stroke-linejoin:miter;stroke-opacity:1;stroke-miterlimit:4;stroke-dasharray:none;stroke-dashoffset:0" />
      <path
         transform="translate(139.5,511.875)"
         inkscape:connector-curvature="0"
         id="path4006"
         d="m 341.93664,117.25886 -10.35407,-5.93464"
         style="fill:none;stroke:#595959;stroke-width:1.36000000000000010;stroke-linecap:butt;stroke-linejoin:miter;stroke-opacity:1;stroke-miterlimit:4;stroke-dasharray:none;stroke-dashoffset:0" />
      <path
         transform="translate(139.5,511.875)"
         inkscape:connector-curvature="0"
         id="path4008"
         d="m 361.88715,83.797561 -9.72272,-5.050763"
         style="fill:none;stroke:#595959;stroke-width:1.36000000000000010;stroke-linecap:butt;stroke-linejoin:miter;stroke-opacity:1;stroke-miterlimit:4;stroke-dasharray:none;stroke-dashoffset:0" />
      <path
         transform="translate(139.5,511.875)"
         inkscape:connector-curvature="0"
         id="path4010"
         d="m 374.01786,51.357143 -9.19643,-3.035715"
         style="fill:none;stroke:#595959;stroke-width:1.36000000000000010;stroke-linecap:butt;stroke-linejoin:miter;stroke-opacity:1;stroke-miterlimit:4;stroke-dasharray:none;stroke-dashoffset:0" />
      <path
         sodipodi:nodetypes="cc"
         inkscape:connector-curvature="0"
         id="path3930-35"
         d="m 505.1006,516.30618 9.72272,0"
         style="fill:none;stroke:#595959;stroke-width:1.36000000000000010;stroke-linecap:butt;stroke-linejoin:miter;stroke-opacity:1;stroke-miterlimit:4;stroke-dasharray:none;stroke-dashoffset:0" />
      <path
         inkscape:connector-curvature="0"
         id="path3932-6"
         d="m 505.35314,524.26113 9.97526,0"
         style="fill:none;stroke:#595959;stroke-width:1.36000000000000010;stroke-linecap:butt;stroke-linejoin:miter;stroke-opacity:1;stroke-miterlimit:4;stroke-dasharray:none;stroke-dashoffset:0" />
      <path
         sodipodi:nodetypes="cc"
         inkscape:connector-curvature="0"
         id="path3930-3-2"
         d="m 504.53239,531.20593 c 1.15632,-0.29597 11.63525,-0.007 10.72255,0"
         style="fill:none;stroke:#595959;stroke-width:1.36000000000000010;stroke-linecap:butt;stroke-linejoin:miter;stroke-opacity:1;stroke-miterlimit:4;stroke-dasharray:none;stroke-dashoffset:0" />
      <path
         sodipodi:nodetypes="cc"
         inkscape:connector-curvature="0"
         id="path3930-6-9"
         d="m 505.20391,538.26445 9.72272,0"
         style="fill:none;stroke:#595959;stroke-width:1.36000000000000010;stroke-linecap:butt;stroke-linejoin:miter;stroke-opacity:1;stroke-miterlimit:4;stroke-dasharray:none;stroke-dashoffset:0" />
      <path
         inkscape:connector-curvature="0"
         id="path3932-7-1"
         d="m 505.45645,546.2194 9.97526,0"
         style="fill:none;stroke:#595959;stroke-width:1.36000000000000010;stroke-linecap:butt;stroke-linejoin:miter;stroke-opacity:1;stroke-miterlimit:4;stroke-dasharray:none;stroke-dashoffset:0" />
      <path
         sodipodi:nodetypes="cc"
         inkscape:connector-curvature="0"
         id="path3930-3-5-2"
         d="m 504.6357,553.1642 c 1.15632,-0.29597 11.63525,-0.007 10.72255,0"
         style="fill:none;stroke:#595959;stroke-width:1.36000000000000010;stroke-linecap:butt;stroke-linejoin:miter;stroke-opacity:1;stroke-miterlimit:4;stroke-dasharray:none;stroke-dashoffset:0" />
    </g>
    <text
       xml:space="preserve"
       style="font-size:40px;font-style:normal;font-weight:normal;line-height:125%;letter-spacing:0px;word-spacing:0px;fill:#a0a0a0;fill-opacity:1;stroke:none;font-family:Sans"
       x="184.70549"
       y="669.18805"
       id="text149461-0-0-7"
       sodipodi:linespacing="125%"><tspan
         sodipodi:role="line"
         x="184.70549"
         y="669.18805"
         style="font-size:20px;font-style:italic;font-variant:normal;font-weight:bold;font-stretch:normal;text-align:center;text-anchor:middle;fill:#000000;fill-opacity:1;stroke:none;font-family:URW Palladio L;-inkscape-font-specification:URW Palladio L Bold Italic"
         id="tspan4815-9">C<tspan
   style="font-size:65.00091553000000033%;baseline-shift:sub;fill:#000000;fill-opacity:1"
   id="tspan3844">j</tspan></tspan></text>
    <text
       xml:space="preserve"
       style="font-size:40px;font-style:normal;font-weight:normal;line-height:125%;letter-spacing:0px;word-spacing:0px;fill:#a0a0a0;fill-opacity:1;stroke:none;font-family:Sans"
       x="166.02425"
       y="644.99207"
       id="text149461-0-0-7-3"
       sodipodi:linespacing="125%"><tspan
         sodipodi:role="line"
         x="166.02425"
         y="644.99207"
         style="font-size:20px;font-style:italic;font-variant:normal;font-weight:bold;font-stretch:normal;text-align:center;text-anchor:middle;fill:#000000;fill-opacity:1;stroke:none;font-family:URW Palladio L;-inkscape-font-specification:URW Palladio L Bold Italic"
         id="tspan4815-9-6">C<tspan
   style="font-size:65.00091553000000033%;baseline-shift:sub;fill:#000000;fill-opacity:1"
   id="tspan3871">j-1</tspan></tspan></text>
    <text
       xml:space="preserve"
       style="font-size:40px;font-style:normal;font-weight:normal;line-height:125%;letter-spacing:0px;word-spacing:0px;fill:#a0a0a0;fill-opacity:1;stroke:none;font-family:Sans"
       x="210.66711"
       y="690.34918"
       id="text149461-0-0-7-5"
       sodipodi:linespacing="125%"><tspan
         sodipodi:role="line"
         x="210.66711"
         y="690.34918"
         style="font-size:20px;font-style:italic;font-variant:normal;font-weight:bold;font-stretch:normal;text-align:center;text-anchor:middle;fill:#000000;fill-opacity:1;stroke:none;font-family:URW Palladio L;-inkscape-font-specification:URW Palladio L Bold Italic"
         id="tspan4815-9-3">C<tspan
   style="font-size:65%;baseline-shift:sub;fill:#000000;fill-opacity:1"
   id="tspan3884">j+1</tspan></tspan></text>
    <path
       style="fill:#f00000;fill-opacity:1;stroke:none"
       d="m 207.17948,617.02165 -10.72933,0 0,5.82434 -9.15662,-9.8081 9.48669,-8.93087 0,6.22793 10.60335,0 z"
       id="path8996-6"
       inkscape:connector-curvature="0"
       sodipodi:nodetypes="cccccccc" />
    <path
       style="fill:#f00000;fill-opacity:1;stroke:none"
       d="m 259.92278,666.51912 -10.72933,0 0,5.82434 -9.15662,-9.8081 9.48669,-8.93087 0,6.22793 10.60335,0 z"
       id="path8996-6-9"
       inkscape:connector-curvature="0"
       sodipodi:nodetypes="cccccccc" />
    <g
       transform="translate(133.84521,445.47727)"
       id="g9812">
      <g
         style="font-style:normal;font-variant:normal;font-weight:normal;font-stretch:normal;letter-spacing:normal;word-spacing:normal;text-anchor:start;fill:none;stroke:#000000;stroke-linecap:butt;stroke-linejoin:miter;stroke-miterlimit:10.43299961;stroke-opacity:1;stroke-dasharray:none;stroke-dashoffset:0"
         id="g9814"
         transform="matrix(0.27285714,0,0,-0.27285714,-47.75,282)"
         xml:space="preserve"
         stroke-miterlimit="10.433"
         font-style="normal"
         font-variant="normal"
         font-weight="normal"
         font-stretch="normal"
         font-size-adjust="none"
         letter-spacing="normal"
         word-spacing="normal"><path
           style="fill:#000000;stroke-width:0"
           inkscape:connector-curvature="0"
           d="m 477.29,439.57 0,0.01 0,0.01 0,0 0,0.01 0,0.01 0,0.01 0,0 0,0.01 0.01,0.02 0,0.03 0,0.02 0.01,0.02 0.01,0.03 0,0.03 0.01,0.02 0,0.03 0.01,0.03 0.01,0.03 0.01,0.06 0.02,0.06 0,0.03 0.01,0.02 0.01,0.03 0,0.03 0.01,0.02 0.01,0.02 0,0.02 0.01,0.02 0,0.01 0,0.01 0,0.01 0,0.01 0.01,0 0,0.01 0,0.01 0,0 0,0.01 0,0 0,0 0,0.01 c 0,0.04 0,0.5 -0.59,0.5 -0.5,0 -0.55,-0.16 -0.75,-1 l -2.89,-11.5 c -7.92,-0.25 -15.25,-6.88 -15.25,-13.66 0,-4.73 3.48,-8.67 9.56,-9.01 l 0.25,1.09 c -2.98,0.14 -6.58,1.89 -6.58,6.87 0,5.99 4.3,12.96 11.72,13.6 l -5.14,-20.47 -0.25,-1.09 c -0.39,-1.55 -0.73,-3.15 -1.14,-4.69 -0.59,-2.35 -1.09,-4.24 -1.09,-4.39 0,-0.49 0.34,-0.55 0.59,-0.55 0.25,0 0.36,0.06 0.5,0.2 0.09,0.1 0.41,1.3 0.55,2 l 1.89,7.43 0.25,1.09 5.14,20.47 c 3.78,-0.19 6.62,-2.49 6.62,-6.88 0,-5.87 -4.28,-13 -11.76,-13.59 l -0.25,-1.09 c 8.03,0.25 15.25,6.96 15.25,13.64 0,3.93 -2.64,8.53 -9.57,9.03 z"
           id="path9816" /><path
           style="fill:#000000;stroke-width:0"
           inkscape:connector-curvature="0"
           d="m 517.3,440.82 0,0.02 0,0.02 -0.01,0.01 0,0.02 0,0.02 -0.01,0.02 0,0.02 -0.01,0.02 0,0.02 -0.01,0.02 -0.01,0.02 -0.01,0.02 -0.01,0.02 -0.01,0.02 -0.02,0.02 -0.01,0.02 -0.02,0.02 -0.02,0.02 -0.01,0.02 -0.02,0.02 -0.03,0.01 -0.02,0.02 -0.02,0.01 -0.03,0.02 -0.03,0.01 -0.03,0.01 -0.01,0.01 -0.02,0 -0.01,0.01 -0.02,0 -0.02,0 -0.02,0.01 -0.01,0 -0.02,0 -0.02,0 -0.02,0 -0.02,0 -0.02,0 c -0.25,0 -0.31,-0.04 -0.91,-0.75 l -2.39,-2.84 c -1.29,2.34 -3.89,3.59 -7.12,3.59 -6.33,0 -12.3,-5.73 -12.3,-11.76 0,-4.03 2.64,-6.33 5.17,-7.06 l 5.33,-1.41 c 1.85,-0.44 4.59,-1.19 4.59,-5.28 0,-4.49 -4.09,-9.16 -8.96,-9.16 -3.19,0 -8.72,1.1 -8.72,7.27 0,1.2 0.25,2.39 0.29,2.69 0.05,0.2 0.1,0.25 0.1,0.35 0,0.5 -0.35,0.55 -0.6,0.55 -0.25,0 -0.34,-0.05 -0.5,-0.2 -0.2,-0.2 -2.98,-11.56 -2.98,-11.7 0,-0.3 0.25,-0.5 0.55,-0.5 0.25,0 0.29,0.04 0.89,0.75 l 2.45,2.82 c 2.14,-2.89 5.52,-3.57 8.41,-3.57 6.78,0 12.65,6.62 12.65,12.79 0,3.44 -1.68,5.14 -2.43,5.83 -1.15,1.16 -1.89,1.34 -6.33,2.5 -1.1,0.3 -2.89,0.8 -3.35,0.89 -1.34,0.45 -3.03,1.89 -3.03,4.53 0,4.05 3.99,8.28 8.72,8.28 4.14,0 7.17,-2.14 7.17,-7.73 0,-1.59 -0.2,-2.49 -0.2,-2.78 0,-0.05 0,-0.5 0.61,-0.5 0.5,0 0.55,0.15 0.73,1 z"
           id="path9818" /><path
           style="fill:#000000;stroke-width:0"
           inkscape:connector-curvature="0"
           d="m 543.84,410.54 -0.02,0.65 -0.05,0.64 -0.08,0.64 -0.11,0.62 -0.14,0.61 -0.17,0.6 -0.2,0.59 -0.23,0.58 -0.26,0.56 -0.28,0.55 -0.31,0.53 -0.33,0.52 -0.36,0.5 -0.37,0.48 -0.41,0.46 -0.42,0.45 -0.44,0.42 -0.47,0.4 -0.48,0.38 -0.5,0.36 -0.52,0.33 -0.54,0.31 -0.55,0.28 -0.57,0.25 -0.58,0.23 -0.6,0.21 -0.61,0.17 -0.62,0.14 -0.63,0.11 -0.65,0.09 -0.65,0.05 -0.66,0.01 v -1.12 c 3.97,0 9.09,-2.96 9.09,-11.05 0,-8.56 -5.02,-11.88 -9.09,-11.88 h 0 c -4.08,0 -9.1,3.32 -9.1,11.88 0,8.09 5.13,11.05 9.1,11.05 v 1.12 c -7.14,0 -12.83,-5.75 -12.83,-12.72 0,-6.83 5.69,-12.48 12.83,-12.48 7.14,0 12.81,5.65 12.81,12.48 z"
           id="path9820" /><path
           style="fill:#000000;stroke-width:0"
           inkscape:connector-curvature="0"
           d="m 561.03,412.11 5.4,7.04 c 1.6,2.13 4.29,2.16 5.25,2.16 v 1.25 c -1.28,-0.11 -2.58,-0.14 -3.86,-0.14 -1.53,0 -3.1,0.08 -4.64,0.14 v -1.25 c 1.61,-0.08 1.92,-1.05 1.92,-1.44 0,-0.41 -0.17,-0.62 -0.42,-0.94 l -4.42,-5.78 -5.01,6.66 c -0.32,0.34 -0.32,0.42 -0.32,0.51 0,0.46 0.8,0.96 2.05,0.99 v 1.25 c -0.17,0 -3.97,-0.14 -5.3,-0.14 -1.67,0 -4.34,0.14 -4.56,0.14 v -1.25 h 0.7 c 2.05,0 2.65,-0.25 3.35,-1.19 l 7.14,-9.51 -6.34,-8.3 c -0.69,-0.91 -2.02,-2.3 -5.37,-2.3 v -1.25 c 1.29,0.11 2.58,0.14 3.87,0.14 1.67,0 4.46,-0.14 4.63,-0.14 v 1.25 c -1.46,0.08 -1.92,0.91 -1.92,1.44 0,0.09 0,0.45 0.39,0.94 l 5.53,7.22 6.15,-8.13 c 0.06,-0.11 0.23,-0.34 0.23,-0.48 0,-0.43 -0.66,-0.94 -2.05,-0.99 v -1.25 c 0.14,0 4.05,0.14 5.33,0.14 1.64,0 4.36,-0.14 4.56,-0.14 v 1.25 h -0.68 c -2.32,0 -2.72,0.36 -3.36,1.19 z"
           id="path9822" /><path
           style="fill:#000000;stroke-width:0"
           inkscape:connector-curvature="0"
           d="m 582.3,400.75 0,0.11 -0.01,0.11 -0.01,0.11 -0.02,0.1 -0.03,0.11 -0.03,0.09 -0.03,0.1 -0.04,0.1 -0.04,0.09 -0.04,0.08 -0.06,0.09 -0.05,0.08 -0.06,0.08 -0.06,0.07 -0.06,0.07 -0.07,0.07 -0.07,0.07 -0.07,0.06 -0.08,0.05 -0.08,0.06 -0.08,0.04 -0.08,0.05 -0.09,0.04 -0.09,0.04 -0.08,0.03 -0.09,0.03 -0.09,0.03 -0.1,0.02 -0.09,0.01 -0.09,0.01 -0.1,0.01 -0.09,0 c -1.22,0 -2.02,-0.97 -2.02,-1.98 0,-1.22 0.97,-2.02 1.98,-2.02 1.22,0 2.02,0.97 2.02,1.99 z"
           id="path9824" /></g>    </g>
    <g
       transform="translate(187.86807,495.01536)"
       id="g10018">
      <g
         style="font-style:normal;font-variant:normal;font-weight:normal;font-stretch:normal;letter-spacing:normal;word-spacing:normal;text-anchor:start;fill:none;stroke:#000000;stroke-linecap:butt;stroke-linejoin:miter;stroke-miterlimit:10.43299961;stroke-opacity:1;stroke-dasharray:none;stroke-dashoffset:0"
         word-spacing="normal"
         letter-spacing="normal"
         font-size-adjust="none"
         font-stretch="normal"
         font-weight="normal"
         font-variant="normal"
         font-style="normal"
         stroke-miterlimit="10.433"
         xml:space="preserve"
         transform="matrix(0.27285714,0,0,-0.27285714,-47.75,282)"
         id="g10020"><path
           style="fill:#000000;stroke-width:0"
           inkscape:connector-curvature="0"
           id="path10022"
           d="m 477.29,439.57 0,0.01 0,0.01 0,0 0,0.01 0,0.01 0,0.01 0,0 0,0.01 0.01,0.02 0,0.03 0,0.02 0.01,0.02 0.01,0.03 0,0.03 0.01,0.02 0,0.03 0.01,0.03 0.01,0.03 0.01,0.06 0.02,0.06 0,0.03 0.01,0.02 0.01,0.03 0,0.03 0.01,0.02 0.01,0.02 0,0.02 0.01,0.02 0,0.01 0,0.01 0,0.01 0,0.01 0.01,0 0,0.01 0,0.01 0,0 0,0.01 0,0 0,0 0,0.01 c 0,0.04 0,0.5 -0.59,0.5 -0.5,0 -0.55,-0.16 -0.75,-1 l -2.89,-11.5 c -7.92,-0.25 -15.25,-6.88 -15.25,-13.66 0,-4.73 3.48,-8.67 9.56,-9.01 l 0.25,1.09 c -2.98,0.14 -6.58,1.89 -6.58,6.87 0,5.99 4.3,12.96 11.72,13.6 l -5.14,-20.47 -0.25,-1.09 c -0.39,-1.55 -0.73,-3.15 -1.14,-4.69 -0.59,-2.35 -1.09,-4.24 -1.09,-4.39 0,-0.49 0.34,-0.55 0.59,-0.55 0.25,0 0.36,0.06 0.5,0.2 0.09,0.1 0.41,1.3 0.55,2 l 1.89,7.43 0.25,1.09 5.14,20.47 c 3.78,-0.19 6.62,-2.49 6.62,-6.88 0,-5.87 -4.28,-13 -11.76,-13.59 l -0.25,-1.09 c 8.03,0.25 15.25,6.96 15.25,13.64 0,3.93 -2.64,8.53 -9.57,9.03 z" /><path
           style="fill:#000000;stroke-width:0"
           inkscape:connector-curvature="0"
           id="path10024"
           d="m 517.3,440.82 0,0.02 0,0.02 -0.01,0.01 0,0.02 0,0.02 -0.01,0.02 0,0.02 -0.01,0.02 0,0.02 -0.01,0.02 -0.01,0.02 -0.01,0.02 -0.01,0.02 -0.01,0.02 -0.02,0.02 -0.01,0.02 -0.02,0.02 -0.02,0.02 -0.01,0.02 -0.02,0.02 -0.03,0.01 -0.02,0.02 -0.02,0.01 -0.03,0.02 -0.03,0.01 -0.03,0.01 -0.01,0.01 -0.02,0 -0.01,0.01 -0.02,0 -0.02,0 -0.02,0.01 -0.01,0 -0.02,0 -0.02,0 -0.02,0 -0.02,0 -0.02,0 c -0.25,0 -0.31,-0.04 -0.91,-0.75 l -2.39,-2.84 c -1.29,2.34 -3.89,3.59 -7.12,3.59 -6.33,0 -12.3,-5.73 -12.3,-11.76 0,-4.03 2.64,-6.33 5.17,-7.06 l 5.33,-1.41 c 1.85,-0.44 4.59,-1.19 4.59,-5.28 0,-4.49 -4.09,-9.16 -8.96,-9.16 -3.19,0 -8.72,1.1 -8.72,7.27 0,1.2 0.25,2.39 0.29,2.69 0.05,0.2 0.1,0.25 0.1,0.35 0,0.5 -0.35,0.55 -0.6,0.55 -0.25,0 -0.34,-0.05 -0.5,-0.2 -0.2,-0.2 -2.98,-11.56 -2.98,-11.7 0,-0.3 0.25,-0.5 0.55,-0.5 0.25,0 0.29,0.04 0.89,0.75 l 2.45,2.82 c 2.14,-2.89 5.52,-3.57 8.41,-3.57 6.78,0 12.65,6.62 12.65,12.79 0,3.44 -1.68,5.14 -2.43,5.83 -1.15,1.16 -1.89,1.34 -6.33,2.5 -1.1,0.3 -2.89,0.8 -3.35,0.89 -1.34,0.45 -3.03,1.89 -3.03,4.53 0,4.05 3.99,8.28 8.72,8.28 4.14,0 7.17,-2.14 7.17,-7.73 0,-1.59 -0.2,-2.49 -0.2,-2.78 0,-0.05 0,-0.5 0.61,-0.5 0.5,0 0.55,0.15 0.73,1 z" /><path
           style="fill:#000000;stroke-width:0"
           inkscape:connector-curvature="0"
           id="path10026"
           d="m 539.56,419.73 0,0.11 0,0.1 0,0.1 0.01,0.1 0,0.09 0.01,0.09 0.02,0.08 0.01,0.08 0.02,0.07 0.03,0.07 0.03,0.07 0.03,0.06 0.05,0.06 0.04,0.06 0.06,0.05 0.06,0.04 0.07,0.05 0.08,0.04 0.04,0.02 0.05,0.02 0.05,0.02 0.04,0.01 0.06,0.02 0.05,0.01 0.06,0.02 0.06,0.01 0.06,0.01 0.06,0.02 0.07,0.01 0.07,0.01 0.08,0.01 0.07,0.01 0.08,0.01 0.08,0.01 0.09,0 0.09,0.01 0.09,0 0.09,0.01 0.1,0 0.1,0.01 0.11,0 0.11,0 0.11,0.01 0.12,0 0.12,0 0.12,0 h 0.84 v 1.25 c -1.75,-0.06 -3.97,-0.14 -5.23,-0.14 -1.28,0 -3.52,0.08 -5.25,0.14 v -1.25 h 0.83 c 2.68,0 2.75,-0.35 2.75,-1.58 v -7.97 H 524.6 v 7.97 c 0,1.19 0.08,1.58 2.77,1.58 h 0.83 v 1.25 c -1.73,-0.06 -3.97,-0.14 -5.22,-0.14 -1.3,0 -3.53,0.08 -5.26,0.14 v -1.25 h 0.82 c 2.69,0 2.77,-0.35 2.77,-1.58 v -18.14 c 0,-1.19 -0.08,-1.58 -2.77,-1.58 h -0.82 v -1.25 c 1.73,0.06 3.96,0.14 5.21,0.14 1.3,0 3.54,-0.08 5.27,-0.14 v 1.25 h -0.83 c -2.69,0 -2.77,0.36 -2.77,1.58 v 8.92 h 11.65 v -8.92 c 0,-1.19 -0.07,-1.58 -2.75,-1.58 h -0.83 v -1.25 c 1.73,0.06 3.97,0.14 5.22,0.14 1.29,0 3.51,-0.08 5.26,-0.14 v 1.25 h -0.84 c -2.67,0 -2.75,0.36 -2.75,1.58 z" /><path
           style="fill:#000000;stroke-width:0"
           inkscape:connector-curvature="0"
           id="path10028"
           d="m 554.74,421.79 -0.03,0.07 -0.03,0.07 -0.03,0.06 -0.03,0.06 -0.03,0.05 -0.03,0.05 -0.03,0.04 -0.03,0.05 -0.03,0.03 -0.03,0.04 -0.03,0.03 -0.03,0.03 -0.04,0.03 -0.03,0.02 -0.04,0.02 -0.04,0.02 -0.03,0.02 -0.04,0.01 -0.04,0.02 -0.05,0.01 -0.04,0.01 -0.04,0.01 -0.05,0 -0.05,0.01 -0.05,0 -0.05,0 -0.06,0.01 -0.05,0 -0.06,0 -0.06,0 -0.07,0 -0.06,0 h -6.11 v -1.25 h 0.84 c 2.67,0 2.75,-0.35 2.75,-1.58 v -17.2 c 0,-0.94 0,-2.52 -3.59,-2.52 v -1.25 c 1.43,0.11 2.83,0.14 4.25,0.14 1.43,0 2.83,-0.03 4.25,-0.14 v 1.25 c -3.58,0 -3.58,1.58 -3.58,2.52 v 18.36 l 0.03,0.03 9.06,-21.36 c 0.17,-0.41 0.35,-0.8 0.86,-0.8 0.25,0 0.56,0.11 0.84,0.74 l 9.21,21.78 0.03,-0.05 v -19.64 c 0,-1.19 -0.06,-1.58 -2.75,-1.58 h -0.84 v -1.25 c 1.67,0.06 3.62,0.14 5.06,0.14 1.42,0 3.37,-0.08 5.04,-0.14 v 1.25 h -0.84 c -2.67,0 -2.75,0.36 -2.75,1.58 v 18.14 c 0,1.19 0.08,1.58 2.75,1.58 h 0.84 v 1.25 h -6.06 c -0.7,0 -1.01,0 -1.29,-0.69 l -8.36,-19.76 z" /><path
           style="fill:#000000;stroke-width:0"
           inkscape:connector-curvature="0"
           id="path10030"
           d="m 588.66,400.75 0,0.11 -0.01,0.11 -0.01,0.11 -0.02,0.1 -0.02,0.11 -0.03,0.09 -0.04,0.1 -0.03,0.1 -0.05,0.09 -0.04,0.08 -0.05,0.09 -0.06,0.08 -0.05,0.08 -0.07,0.07 -0.06,0.07 -0.07,0.07 -0.07,0.07 -0.07,0.06 -0.08,0.05 -0.08,0.06 -0.08,0.04 -0.08,0.05 -0.09,0.04 -0.08,0.04 -0.09,0.03 -0.09,0.03 -0.09,0.03 -0.09,0.02 -0.1,0.01 -0.09,0.01 -0.1,0.01 -0.09,0 c -1.22,0 -2.02,-0.97 -2.02,-1.98 0,-1.22 0.97,-2.02 1.99,-2.02 1.22,0 2.01,0.97 2.01,1.99 z" /></g>    </g>
    <g
       transform="translate(104.57109,397.01026)"
       id="g10238">
      <g
         style="font-style:normal;font-variant:normal;font-weight:normal;font-stretch:normal;letter-spacing:normal;word-spacing:normal;text-anchor:start;fill:none;stroke:#000000;stroke-linecap:butt;stroke-linejoin:miter;stroke-miterlimit:10.43299961;stroke-opacity:1;stroke-dasharray:none;stroke-dashoffset:0"
         id="g10240"
         transform="matrix(0.27285714,0,0,-0.27285714,-47.75,282)"
         xml:space="preserve"
         stroke-miterlimit="10.433"
         font-style="normal"
         font-variant="normal"
         font-weight="normal"
         font-stretch="normal"
         font-size-adjust="none"
         letter-spacing="normal"
         word-spacing="normal"><path
           style="fill:#000000;stroke-width:0"
           inkscape:connector-curvature="0"
           d="m 477.29,439.57 0,0.01 0,0.01 0,0 0,0.01 0,0.01 0,0.01 0,0 0,0.01 0.01,0.02 0,0.03 0,0.02 0.01,0.02 0.01,0.03 0,0.03 0.01,0.02 0,0.03 0.01,0.03 0.01,0.03 0.01,0.06 0.02,0.06 0,0.03 0.01,0.02 0.01,0.03 0,0.03 0.01,0.02 0.01,0.02 0,0.02 0.01,0.02 0,0.01 0,0.01 0,0.01 0,0.01 0.01,0 0,0.01 0,0.01 0,0 0,0.01 0,0 0,0 0,0.01 c 0,0.04 0,0.5 -0.59,0.5 -0.5,0 -0.55,-0.16 -0.75,-1 l -2.89,-11.5 c -7.92,-0.25 -15.25,-6.88 -15.25,-13.66 0,-4.73 3.48,-8.67 9.56,-9.01 l 0.25,1.09 c -2.98,0.14 -6.58,1.89 -6.58,6.87 0,5.99 4.3,12.96 11.72,13.6 l -5.14,-20.47 -0.25,-1.09 c -0.39,-1.55 -0.73,-3.15 -1.14,-4.69 -0.59,-2.35 -1.09,-4.24 -1.09,-4.39 0,-0.49 0.34,-0.55 0.59,-0.55 0.25,0 0.36,0.06 0.5,0.2 0.09,0.1 0.41,1.3 0.55,2 l 1.89,7.43 0.25,1.09 5.14,20.47 c 3.78,-0.19 6.62,-2.49 6.62,-6.88 0,-5.87 -4.28,-13 -11.76,-13.59 l -0.25,-1.09 c 8.03,0.25 15.25,6.96 15.25,13.64 0,3.93 -2.64,8.53 -9.57,9.03 z"
           id="path10242" /><path
           style="fill:#000000;stroke-width:0"
           inkscape:connector-curvature="0"
           d="m 517.3,440.82 0,0.02 0,0.02 -0.01,0.01 0,0.02 0,0.02 -0.01,0.02 0,0.02 -0.01,0.02 0,0.02 -0.01,0.02 -0.01,0.02 -0.01,0.02 -0.01,0.02 -0.01,0.02 -0.02,0.02 -0.01,0.02 -0.02,0.02 -0.02,0.02 -0.01,0.02 -0.02,0.02 -0.03,0.01 -0.02,0.02 -0.02,0.01 -0.03,0.02 -0.03,0.01 -0.03,0.01 -0.01,0.01 -0.02,0 -0.01,0.01 -0.02,0 -0.02,0 -0.02,0.01 -0.01,0 -0.02,0 -0.02,0 -0.02,0 -0.02,0 -0.02,0 c -0.25,0 -0.31,-0.04 -0.91,-0.75 l -2.39,-2.84 c -1.29,2.34 -3.89,3.59 -7.12,3.59 -6.33,0 -12.3,-5.73 -12.3,-11.76 0,-4.03 2.64,-6.33 5.17,-7.06 l 5.33,-1.41 c 1.85,-0.44 4.59,-1.19 4.59,-5.28 0,-4.49 -4.09,-9.16 -8.96,-9.16 -3.19,0 -8.72,1.1 -8.72,7.27 0,1.2 0.25,2.39 0.29,2.69 0.05,0.2 0.1,0.25 0.1,0.35 0,0.5 -0.35,0.55 -0.6,0.55 -0.25,0 -0.34,-0.05 -0.5,-0.2 -0.2,-0.2 -2.98,-11.56 -2.98,-11.7 0,-0.3 0.25,-0.5 0.55,-0.5 0.25,0 0.29,0.04 0.89,0.75 l 2.45,2.82 c 2.14,-2.89 5.52,-3.57 8.41,-3.57 6.78,0 12.65,6.62 12.65,12.79 0,3.44 -1.68,5.14 -2.43,5.83 -1.15,1.16 -1.89,1.34 -6.33,2.5 -1.1,0.3 -2.89,0.8 -3.35,0.89 -1.34,0.45 -3.03,1.89 -3.03,4.53 0,4.05 3.99,8.28 8.72,8.28 4.14,0 7.17,-2.14 7.17,-7.73 0,-1.59 -0.2,-2.49 -0.2,-2.78 0,-0.05 0,-0.5 0.61,-0.5 0.5,0 0.55,0.15 0.73,1 z"
           id="path10244" /><path
           style="fill:#000000;stroke-width:0"
           inkscape:connector-curvature="0"
           d="m 538.45,407.93 h -1.19 c -0.39,-3.42 -0.91,-7.92 -7.5,-7.92 h -3.48 c -1.63,0 -1.68,0.28 -1.68,1.36 v 18.33 c 0,1.16 0,1.61 3.29,1.61 h 1.21 v 1.25 c -0.73,-0.03 -5.18,-0.14 -6.09,-0.14 -1.33,0 -5.26,0.14 -5.29,0.14 v -1.25 h 0.82 c 2.69,0 2.77,-0.35 2.77,-1.58 v -18.14 c 0,-1.19 -0.08,-1.58 -2.77,-1.58 h -0.82 v -1.25 h 19.68 z"
           id="path10246" /><path
           style="fill:#000000;stroke-width:0"
           inkscape:connector-curvature="0"
           d="m 549.94,421.79 -0.03,0.07 -0.03,0.07 -0.03,0.06 -0.03,0.06 -0.03,0.05 -0.03,0.05 -0.03,0.04 -0.03,0.05 -0.03,0.03 -0.03,0.04 -0.03,0.03 -0.04,0.03 -0.03,0.03 -0.03,0.02 -0.04,0.02 -0.04,0.02 -0.03,0.02 -0.04,0.01 -0.04,0.02 -0.05,0.01 -0.04,0.01 -0.04,0.01 -0.05,0 -0.05,0.01 -0.05,0 -0.05,0 -0.06,0.01 -0.05,0 -0.06,0 -0.07,0 -0.06,0 -0.07,0 h -6.1 v -1.25 h 0.84 c 2.67,0 2.75,-0.35 2.75,-1.58 v -17.2 c 0,-0.94 0,-2.52 -3.59,-2.52 v -1.25 c 1.43,0.11 2.82,0.14 4.25,0.14 1.43,0 2.82,-0.03 4.25,-0.14 v 1.25 c -3.58,0 -3.58,1.58 -3.58,2.52 v 18.36 l 0.03,0.03 9.06,-21.36 c 0.17,-0.41 0.35,-0.8 0.86,-0.8 0.25,0 0.56,0.11 0.84,0.74 l 9.21,21.78 0.03,-0.05 v -19.64 c 0,-1.19 -0.06,-1.58 -2.75,-1.58 h -0.84 v -1.25 c 1.67,0.06 3.62,0.14 5.06,0.14 1.42,0 3.37,-0.08 5.04,-0.14 v 1.25 h -0.84 c -2.67,0 -2.75,0.36 -2.75,1.58 v 18.14 c 0,1.19 0.08,1.58 2.75,1.58 h 0.84 v 1.25 h -6.06 c -0.7,0 -1.01,0 -1.3,-0.69 l -8.35,-19.76 z"
           id="path10248" /><path
           style="fill:#000000;stroke-width:0"
           inkscape:connector-curvature="0"
           d="m 583.86,400.75 0,0.11 -0.01,0.11 -0.01,0.11 -0.02,0.1 -0.02,0.11 -0.03,0.09 -0.04,0.1 -0.03,0.1 -0.05,0.09 -0.04,0.08 -0.05,0.09 -0.06,0.08 -0.05,0.08 -0.07,0.07 -0.06,0.07 -0.07,0.07 -0.07,0.07 -0.07,0.06 -0.08,0.05 -0.08,0.06 -0.08,0.04 -0.08,0.05 -0.09,0.04 -0.08,0.04 -0.09,0.03 -0.09,0.03 -0.09,0.03 -0.09,0.02 -0.1,0.01 -0.09,0.01 -0.1,0.01 -0.09,0 c -1.22,0 -2.02,-0.97 -2.02,-1.98 0,-1.22 0.97,-2.02 1.99,-2.02 1.22,0 2.01,0.97 2.01,1.99 z"
           id="path10250" /></g>    </g>
    <g
       transform="translate(104.99495,368.70568)"
       id="g10472">
      <g
         style="font-style:normal;font-variant:normal;font-weight:normal;font-stretch:normal;letter-spacing:normal;word-spacing:normal;text-anchor:start;fill:none;stroke:#000000;stroke-linecap:butt;stroke-linejoin:miter;stroke-miterlimit:10.43299961;stroke-opacity:1;stroke-dasharray:none;stroke-dashoffset:0"
         word-spacing="normal"
         letter-spacing="normal"
         font-size-adjust="none"
         font-stretch="normal"
         font-weight="normal"
         font-variant="normal"
         font-style="normal"
         stroke-miterlimit="10.433"
         xml:space="preserve"
         transform="matrix(0.27285714,0,0,-0.27285714,-47.75,282)"
         id="g10474"><path
           style="fill:#000000;stroke-width:0"
           inkscape:connector-curvature="0"
           id="path10476"
           d="m 477.29,439.57 0,0.01 0,0.01 0,0 0,0.01 0,0.01 0,0.01 0,0 0,0.01 0.01,0.02 0,0.03 0,0.02 0.01,0.02 0.01,0.03 0,0.03 0.01,0.02 0,0.03 0.01,0.03 0.01,0.03 0.01,0.06 0.02,0.06 0,0.03 0.01,0.02 0.01,0.03 0,0.03 0.01,0.02 0.01,0.02 0,0.02 0.01,0.02 0,0.01 0,0.01 0,0.01 0,0.01 0.01,0 0,0.01 0,0.01 0,0 0,0.01 0,0 0,0 0,0.01 c 0,0.04 0,0.5 -0.59,0.5 -0.5,0 -0.55,-0.16 -0.75,-1 l -2.89,-11.5 c -7.92,-0.25 -15.25,-6.88 -15.25,-13.66 0,-4.73 3.48,-8.67 9.56,-9.01 l 0.25,1.09 c -2.98,0.14 -6.58,1.89 -6.58,6.87 0,5.99 4.3,12.96 11.72,13.6 l -5.14,-20.47 -0.25,-1.09 c -0.39,-1.55 -0.73,-3.15 -1.14,-4.69 -0.59,-2.35 -1.09,-4.24 -1.09,-4.39 0,-0.49 0.34,-0.55 0.59,-0.55 0.25,0 0.36,0.06 0.5,0.2 0.09,0.1 0.41,1.3 0.55,2 l 1.89,7.43 0.25,1.09 5.14,20.47 c 3.78,-0.19 6.62,-2.49 6.62,-6.88 0,-5.87 -4.28,-13 -11.76,-13.59 l -0.25,-1.09 c 8.03,0.25 15.25,6.96 15.25,13.64 0,3.93 -2.64,8.53 -9.57,9.03 z" /><path
           style="fill:#000000;stroke-width:0"
           inkscape:connector-curvature="0"
           id="path10478"
           d="m 517.3,440.82 0,0.02 0,0.02 -0.01,0.01 0,0.02 0,0.02 -0.01,0.02 0,0.02 -0.01,0.02 0,0.02 -0.01,0.02 -0.01,0.02 -0.01,0.02 -0.01,0.02 -0.01,0.02 -0.02,0.02 -0.01,0.02 -0.02,0.02 -0.02,0.02 -0.01,0.02 -0.02,0.02 -0.03,0.01 -0.02,0.02 -0.02,0.01 -0.03,0.02 -0.03,0.01 -0.03,0.01 -0.01,0.01 -0.02,0 -0.01,0.01 -0.02,0 -0.02,0 -0.02,0.01 -0.01,0 -0.02,0 -0.02,0 -0.02,0 -0.02,0 -0.02,0 c -0.25,0 -0.31,-0.04 -0.91,-0.75 l -2.39,-2.84 c -1.29,2.34 -3.89,3.59 -7.12,3.59 -6.33,0 -12.3,-5.73 -12.3,-11.76 0,-4.03 2.64,-6.33 5.17,-7.06 l 5.33,-1.41 c 1.85,-0.44 4.59,-1.19 4.59,-5.28 0,-4.49 -4.09,-9.16 -8.96,-9.16 -3.19,0 -8.72,1.1 -8.72,7.27 0,1.2 0.25,2.39 0.29,2.69 0.05,0.2 0.1,0.25 0.1,0.35 0,0.5 -0.35,0.55 -0.6,0.55 -0.25,0 -0.34,-0.05 -0.5,-0.2 -0.2,-0.2 -2.98,-11.56 -2.98,-11.7 0,-0.3 0.25,-0.5 0.55,-0.5 0.25,0 0.29,0.04 0.89,0.75 l 2.45,2.82 c 2.14,-2.89 5.52,-3.57 8.41,-3.57 6.78,0 12.65,6.62 12.65,12.79 0,3.44 -1.68,5.14 -2.43,5.83 -1.15,1.16 -1.89,1.34 -6.33,2.5 -1.1,0.3 -2.89,0.8 -3.35,0.89 -1.34,0.45 -3.03,1.89 -3.03,4.53 0,4.05 3.99,8.28 8.72,8.28 4.14,0 7.17,-2.14 7.17,-7.73 0,-1.59 -0.2,-2.49 -0.2,-2.78 0,-0.05 0,-0.5 0.61,-0.5 0.5,0 0.55,0.15 0.73,1 z" /><path
           style="fill:#000000;stroke-width:0"
           inkscape:connector-curvature="0"
           id="path10480"
           d="m 538.48,422.42 h -20.76 v -1.25 h 0.82 c 2.69,0 2.77,-0.35 2.77,-1.56 v -18.02 c 0,-1.19 -0.08,-1.58 -2.77,-1.58 h -0.82 v -1.25 c 0.03,0 3.96,0.14 5.29,0.14 1.42,0 5.58,-0.11 6.09,-0.14 v 1.25 h -1.21 c -3.29,0 -3.29,0.45 -3.29,1.61 v 8.36 h 3.4 c 3.48,0 3.97,-1.05 3.97,-4.08 h 1.18 v 9.41 h -1.18 c 0,-3 -0.49,-4.08 -3.97,-4.08 h -3.4 v 8.58 c 0,1.08 0.05,1.36 1.68,1.36 h 4.89 c 5.61,0 6.55,-1.89 7.17,-6.77 h 1.19 z" /><path
           style="fill:#000000;stroke-width:0"
           inkscape:connector-curvature="0"
           id="path10482"
           d="m 566.8,407.93 h -1.17 c -0.91,-5.26 -1.72,-7.92 -8.16,-7.92 h -5.51 c -1.63,0 -1.68,0.28 -1.68,1.36 v 9.06 h 3.54 c 3.51,0 4.03,-1.04 4.03,-4.07 h 1.18 v 9.4 h -1.18 c 0,-3.03 -0.52,-4.08 -4.03,-4.08 h -3.54 v 8.13 c 0,1.08 0.05,1.36 1.68,1.36 h 5.23 c 5.72,0 6.72,-1.89 7.36,-6.77 h 1.17 l -1.04,8.02 H 543.4 v -1.25 h 0.82 c 2.69,0 2.77,-0.35 2.77,-1.56 v -18.02 c 0,-1.19 -0.08,-1.58 -2.77,-1.58 h -0.82 v -1.25 h 21.84 z" /><path
           style="fill:#000000;stroke-width:0"
           inkscape:connector-curvature="0"
           id="path10484"
           d="m 575.82,400.75 0,0.11 -0.01,0.11 -0.01,0.11 -0.02,0.1 -0.02,0.11 -0.03,0.09 -0.04,0.1 -0.03,0.1 -0.05,0.09 -0.04,0.08 -0.05,0.09 -0.06,0.08 -0.05,0.08 -0.07,0.07 -0.06,0.07 -0.07,0.07 -0.07,0.07 -0.07,0.06 -0.08,0.05 -0.08,0.06 -0.08,0.04 -0.08,0.05 -0.09,0.04 -0.08,0.04 -0.09,0.03 -0.09,0.03 -0.09,0.03 -0.09,0.02 -0.1,0.01 -0.09,0.01 -0.09,0.01 -0.1,0 c -1.22,0 -2.02,-0.97 -2.02,-1.98 0,-1.22 0.97,-2.02 1.99,-2.02 1.22,0 2.01,0.97 2.01,1.99 z" /></g>    </g>
    <path
       style="fill:#f00000;fill-opacity:1;stroke:none"
       d="m 175.09982,567.01909 -10.72933,0 0,5.82434 -9.15662,-9.8081 9.48669,-8.93087 0,6.22793 10.60335,0 z"
       id="path8996-6-2"
       inkscape:connector-curvature="0"
       sodipodi:nodetypes="cccccccc" />
    <path
       style="fill:#f00000;fill-opacity:1;stroke:none"
       d="m 174.59474,538.73482 -10.72933,0 0,5.82434 -9.15662,-9.8081 9.48669,-8.93087 0,6.22793 10.60335,0 z"
       id="path8996-6-7"
       inkscape:connector-curvature="0"
       sodipodi:nodetypes="cccccccc" />
    <g
       id="g10971"
       transform="matrix(1.4152226,0,0,1.4152226,165.86405,372.50056)">
      <g
         word-spacing="normal"
         letter-spacing="normal"
         font-size-adjust="none"
         font-stretch="normal"
         font-weight="normal"
         font-variant="normal"
         font-style="normal"
         stroke-miterlimit="10.433"
         xml:space="preserve"
         transform="matrix(0.27285714,0,0,-0.27285714,-24.045378,281.62374)"
         id="content"
         style="font-style:normal;font-variant:normal;font-weight:normal;font-stretch:normal;letter-spacing:normal;word-spacing:normal;text-anchor:start;fill:none;stroke:#000000;stroke-linecap:butt;stroke-linejoin:miter;stroke-miterlimit:10.43299961;stroke-opacity:1;stroke-dasharray:none;stroke-dashoffset:0"><path
           id="path10974"
           d="m 484.04,449.49 0,0.12 -0.01,0.13 -0.02,0.12 -0.02,0.13 -0.03,0.12 -0.03,0.12 -0.04,0.12 -0.05,0.12 -0.05,0.11 -0.06,0.12 -0.06,0.11 -0.07,0.1 -0.07,0.11 -0.08,0.1 -0.08,0.1 -0.08,0.09 -0.1,0.09 -0.09,0.09 -0.1,0.08 -0.1,0.08 -0.11,0.07 -0.11,0.07 -0.11,0.06 -0.12,0.06 -0.12,0.05 -0.13,0.04 -0.12,0.04 -0.13,0.03 -0.14,0.03 -0.13,0.01 -0.14,0.02 -0.14,0 c -1.69,0 -2.69,-1.39 -2.69,-2.64 0,-1.35 1.15,-2.64 2.65,-2.64 1.68,0 2.68,1.39 2.68,2.64 z"
           inkscape:connector-curvature="0"
           style="fill:#000000;stroke-width:0" /><path
           id="path10976"
           d="m 466.63,407.59 -0.09,0 -0.09,0 -0.16,0 -0.16,0 -0.16,-0.01 -0.15,-0.01 -0.15,-0.02 -0.15,-0.02 -0.08,-0.02 -0.07,-0.01 -0.08,-0.02 -0.08,-0.02 -0.08,-0.03 -0.08,-0.02 -0.08,-0.03 -0.09,-0.03 -0.08,-0.04 -0.09,-0.04 -0.09,-0.04 -0.1,-0.04 -0.09,-0.05 -0.1,-0.05 -0.11,-0.06 -0.1,-0.06 -0.11,-0.06 -0.12,-0.07 c -0.4,-0.23 -1.59,-1.05 -1.59,-1.64 0,-0.34 0.25,-0.34 0.5,-0.34 3.33,-0.16 5.38,-0.6 10.36,-2.35 3.44,-1.25 6.97,-2.48 10.91,-2.48 5.82,0 10.65,5.12 10.65,7.17 0,0.25 -0.18,0.39 -0.43,0.39 -0.5,0 -1.55,-0.39 -2.35,-0.94 -1.14,-0.75 -1.25,-1.09 -1.5,-1.75 -0.69,-1.98 -1.73,-2.14 -3.09,-2.14 -3.28,0 -5.52,0.8 -12.71,3.24 8.63,2.43 19.49,11.06 19.49,23.07 0,6.77 -3.69,12.25 -11.02,12.25 -10.15,0 -21.97,-10.4 -21.97,-20.78 0,-5.28 3.15,-9.26 8.68,-9.26 5.03,0 10.72,3.29 10.72,4.48 0,0.3 -0.36,0.3 -0.55,0.3 -0.7,0 -1.55,-0.5 -2.25,-0.85 -2.05,-1.14 -4.14,-1.18 -4.63,-1.18 -4.48,0 -7.73,3.48 -7.73,8.61 0,6.23 5.64,15.95 14.45,15.95 6.28,0 10.06,-4.98 10.06,-11.61 0,-4.94 -2.04,-10.56 -6.78,-14.75 -3.23,-2.94 -6.87,-4.64 -15.03,-4.64 z"
           inkscape:connector-curvature="0"
           style="fill:#000000;stroke-width:0" /><path
           id="path10978"
           d="m 524.28,410.54 -0.02,0.65 -0.05,0.64 -0.08,0.64 -0.11,0.62 -0.14,0.61 -0.18,0.6 -0.2,0.59 -0.23,0.58 -0.25,0.56 -0.28,0.55 -0.31,0.53 -0.33,0.52 -0.36,0.5 -0.38,0.48 -0.4,0.46 -0.42,0.45 -0.45,0.42 -0.46,0.4 -0.49,0.38 -0.5,0.36 -0.52,0.33 -0.53,0.31 -0.56,0.28 -0.56,0.25 -0.59,0.23 -0.59,0.21 -0.61,0.17 -0.62,0.14 -0.64,0.11 -0.64,0.09 -0.65,0.05 -0.67,0.01 v -1.12 c 3.97,0 9.1,-2.96 9.1,-11.05 0,-8.56 -5.02,-11.88 -9.1,-11.88 h 0 c -4.07,0 -9.09,3.32 -9.09,11.88 0,8.09 5.13,11.05 9.09,11.05 v 1.12 c -7.14,0 -12.82,-5.75 -12.82,-12.72 0,-6.83 5.68,-12.48 12.82,-12.48 7.14,0 12.82,5.65 12.82,12.48 z"
           inkscape:connector-curvature="0"
           style="fill:#000000;stroke-width:0" /><path
           id="path10980"
           d="m 541.47,412.11 5.41,7.04 c 1.59,2.13 4.28,2.16 5.24,2.16 v 1.25 c -1.28,-0.11 -2.57,-0.14 -3.85,-0.14 -1.54,0 -3.11,0.08 -4.65,0.14 v -1.25 c 1.61,-0.08 1.93,-1.05 1.93,-1.44 0,-0.41 -0.17,-0.62 -0.43,-0.94 l -4.42,-5.78 -5.01,6.66 c -0.31,0.34 -0.31,0.42 -0.31,0.51 0,0.46 0.79,0.96 2.04,0.99 v 1.25 c -0.17,0 -3.97,-0.14 -5.3,-0.14 -1.67,0 -4.34,0.14 -4.56,0.14 v -1.25 h 0.71 c 2.04,0 2.64,-0.25 3.34,-1.19 l 7.14,-9.51 -6.34,-8.3 c -0.69,-0.91 -2.02,-2.3 -5.36,-2.3 v -1.25 c 1.28,0.11 2.57,0.14 3.86,0.14 1.67,0 4.47,-0.14 4.64,-0.14 v 1.25 c -1.47,0.08 -1.93,0.91 -1.93,1.44 0,0.09 0,0.45 0.4,0.94 l 5.53,7.22 6.14,-8.13 c 0.06,-0.11 0.23,-0.34 0.23,-0.48 0,-0.43 -0.65,-0.94 -2.04,-0.99 v -1.25 c 0.14,0 4.04,0.14 5.32,0.14 1.64,0 4.36,-0.14 4.57,-0.14 v 1.25 h -0.69 c -2.31,0 -2.72,0.36 -3.36,1.19 z"
           inkscape:connector-curvature="0"
           style="fill:#000000;stroke-width:0" /><path
           id="path10982"
           d="m 562.74,400.75 0,0.11 -0.01,0.11 -0.01,0.11 -0.02,0.1 -0.03,0.11 -0.02,0.09 -0.04,0.1 -0.04,0.1 -0.04,0.09 -0.04,0.08 -0.05,0.09 -0.06,0.08 -0.06,0.08 -0.06,0.07 -0.06,0.07 -0.07,0.07 -0.07,0.07 -0.07,0.06 -0.08,0.05 -0.08,0.06 -0.08,0.04 -0.08,0.05 -0.09,0.04 -0.08,0.04 -0.09,0.03 -0.09,0.03 -0.09,0.03 -0.1,0.02 -0.09,0.01 -0.09,0.01 -0.1,0.01 -0.09,0 c -1.22,0 -2.02,-0.97 -2.02,-1.98 0,-1.22 0.97,-2.02 1.99,-2.02 1.22,0 2.01,0.97 2.01,1.99 z"
           inkscape:connector-curvature="0"
           style="fill:#000000;stroke-width:0" /></g>    </g>
    <g
       id="g11192"
       transform="matrix(1.3121526,0,0,1.3121526,211.4992,454.04331)">
      <g
         id="g11194"
         transform="matrix(0.27285714,0,0,-0.27285714,-47.75,282)"
         xml:space="preserve"
         stroke-miterlimit="10.433"
         font-style="normal"
         font-variant="normal"
         font-weight="normal"
         font-stretch="normal"
         font-size-adjust="none"
         letter-spacing="normal"
         word-spacing="normal"
         style="font-style:normal;font-variant:normal;font-weight:normal;font-stretch:normal;letter-spacing:normal;word-spacing:normal;text-anchor:start;fill:none;stroke:#000000;stroke-linecap:butt;stroke-linejoin:miter;stroke-miterlimit:10.43299961;stroke-opacity:1;stroke-dasharray:none;stroke-dashoffset:0"><path
           d="m 484.04,449.49 0,0.12 -0.01,0.13 -0.02,0.12 -0.02,0.13 -0.03,0.12 -0.03,0.12 -0.04,0.12 -0.05,0.12 -0.05,0.11 -0.06,0.12 -0.06,0.11 -0.07,0.1 -0.07,0.11 -0.08,0.1 -0.08,0.1 -0.08,0.09 -0.1,0.09 -0.09,0.09 -0.1,0.08 -0.1,0.08 -0.11,0.07 -0.11,0.07 -0.11,0.06 -0.12,0.06 -0.12,0.05 -0.13,0.04 -0.12,0.04 -0.13,0.03 -0.14,0.03 -0.13,0.01 -0.14,0.02 -0.14,0 c -1.69,0 -2.69,-1.39 -2.69,-2.64 0,-1.35 1.15,-2.64 2.65,-2.64 1.68,0 2.68,1.39 2.68,2.64 z"
           id="path11196"
           inkscape:connector-curvature="0"
           style="fill:#000000;stroke-width:0" /><path
           d="m 466.63,407.59 -0.09,0 -0.09,0 -0.16,0 -0.16,0 -0.16,-0.01 -0.15,-0.01 -0.15,-0.02 -0.15,-0.02 -0.08,-0.02 -0.07,-0.01 -0.08,-0.02 -0.08,-0.02 -0.08,-0.03 -0.08,-0.02 -0.08,-0.03 -0.09,-0.03 -0.08,-0.04 -0.09,-0.04 -0.09,-0.04 -0.1,-0.04 -0.09,-0.05 -0.1,-0.05 -0.11,-0.06 -0.1,-0.06 -0.11,-0.06 -0.12,-0.07 c -0.4,-0.23 -1.59,-1.05 -1.59,-1.64 0,-0.34 0.25,-0.34 0.5,-0.34 3.33,-0.16 5.38,-0.6 10.36,-2.35 3.44,-1.25 6.97,-2.48 10.91,-2.48 5.82,0 10.65,5.12 10.65,7.17 0,0.25 -0.18,0.39 -0.43,0.39 -0.5,0 -1.55,-0.39 -2.35,-0.94 -1.14,-0.75 -1.25,-1.09 -1.5,-1.75 -0.69,-1.98 -1.73,-2.14 -3.09,-2.14 -3.28,0 -5.52,0.8 -12.71,3.24 8.63,2.43 19.49,11.06 19.49,23.07 0,6.77 -3.69,12.25 -11.02,12.25 -10.15,0 -21.97,-10.4 -21.97,-20.78 0,-5.28 3.15,-9.26 8.68,-9.26 5.03,0 10.72,3.29 10.72,4.48 0,0.3 -0.36,0.3 -0.55,0.3 -0.7,0 -1.55,-0.5 -2.25,-0.85 -2.05,-1.14 -4.14,-1.18 -4.63,-1.18 -4.48,0 -7.73,3.48 -7.73,8.61 0,6.23 5.64,15.95 14.45,15.95 6.28,0 10.06,-4.98 10.06,-11.61 0,-4.94 -2.04,-10.56 -6.78,-14.75 -3.23,-2.94 -6.87,-4.64 -15.03,-4.64 z"
           id="path11198"
           inkscape:connector-curvature="0"
           style="fill:#000000;stroke-width:0" /><path
           d="m 520,419.73 0,0.11 0,0.1 0,0.1 0,0.1 0.01,0.09 0.01,0.09 0.01,0.08 0.02,0.08 0.02,0.07 0.03,0.07 0.03,0.07 0.03,0.06 0.04,0.06 0.05,0.06 0.06,0.05 0.06,0.04 0.07,0.05 0.08,0.04 0.04,0.02 0.05,0.02 0.04,0.02 0.05,0.01 0.05,0.02 0.06,0.01 0.05,0.02 0.06,0.01 0.07,0.01 0.06,0.02 0.07,0.01 0.07,0.01 0.07,0.01 0.08,0.01 0.08,0.01 0.08,0.01 0.09,0 0.08,0.01 0.1,0 0.09,0.01 0.1,0 0.1,0.01 0.11,0 0.1,0 0.12,0.01 0.11,0 0.12,0 0.13,0 h 0.84 v 1.25 c -1.75,-0.06 -3.97,-0.14 -5.24,-0.14 -1.28,0 -3.51,0.08 -5.25,0.14 v -1.25 h 0.83 c 2.69,0 2.75,-0.35 2.75,-1.58 v -7.97 h -11.64 v 7.97 c 0,1.19 0.08,1.58 2.77,1.58 h 0.83 v 1.25 c -1.74,-0.06 -3.97,-0.14 -5.22,-0.14 -1.3,0 -3.53,0.08 -5.27,0.14 v -1.25 h 0.83 c 2.69,0 2.77,-0.35 2.77,-1.58 v -18.14 c 0,-1.19 -0.08,-1.58 -2.77,-1.58 h -0.83 v -1.25 c 1.74,0.06 3.97,0.14 5.22,0.14 1.3,0 3.53,-0.08 5.27,-0.14 v 1.25 h -0.83 c -2.69,0 -2.77,0.36 -2.77,1.58 v 8.92 h 11.64 v -8.92 c 0,-1.19 -0.06,-1.58 -2.75,-1.58 h -0.83 v -1.25 c 1.74,0.06 3.97,0.14 5.22,0.14 1.3,0 3.52,-0.08 5.27,-0.14 v 1.25 h -0.84 c -2.68,0 -2.75,0.36 -2.75,1.58 z"
           id="path11200"
           inkscape:connector-curvature="0"
           style="fill:#000000;stroke-width:0" /><path
           d="m 535.18,421.79 -0.03,0.07 -0.03,0.07 -0.03,0.06 -0.03,0.06 -0.03,0.05 -0.03,0.05 -0.03,0.04 -0.03,0.05 -0.03,0.03 -0.03,0.04 -0.03,0.03 -0.04,0.03 -0.03,0.03 -0.04,0.02 -0.03,0.02 -0.04,0.02 -0.04,0.02 -0.04,0.01 -0.04,0.02 -0.04,0.01 -0.04,0.01 -0.05,0.01 -0.04,0 -0.05,0.01 -0.05,0 -0.06,0 -0.05,0.01 -0.06,0 -0.06,0 -0.06,0 -0.06,0 -0.07,0 h -6.11 v -1.25 h 0.85 c 2.67,0 2.75,-0.35 2.75,-1.58 v -17.2 c 0,-0.94 0,-2.52 -3.6,-2.52 v -1.25 c 1.44,0.11 2.83,0.14 4.25,0.14 1.44,0 2.83,-0.03 4.25,-0.14 v 1.25 c -3.57,0 -3.57,1.58 -3.57,2.52 v 18.36 l 0.03,0.03 9.06,-21.36 c 0.17,-0.41 0.34,-0.8 0.86,-0.8 0.25,0 0.56,0.11 0.84,0.74 l 9.21,21.78 0.03,-0.05 v -19.64 c 0,-1.19 -0.06,-1.58 -2.75,-1.58 h -0.85 v -1.25 c 1.67,0.06 3.63,0.14 5.07,0.14 1.42,0 3.37,-0.08 5.04,-0.14 v 1.25 h -0.84 c -2.67,0 -2.75,0.36 -2.75,1.58 v 18.14 c 0,1.19 0.08,1.58 2.75,1.58 h 0.84 v 1.25 h -6.06 c -0.7,0 -1.01,0 -1.3,-0.69 l -8.36,-19.76 z"
           id="path11202"
           inkscape:connector-curvature="0"
           style="fill:#000000;stroke-width:0" /><path
           d="m 569.1,400.75 0,0.11 -0.01,0.11 -0.01,0.11 -0.02,0.1 -0.03,0.11 -0.02,0.09 -0.04,0.1 -0.04,0.1 -0.04,0.09 -0.04,0.08 -0.05,0.09 -0.06,0.08 -0.06,0.08 -0.06,0.07 -0.06,0.07 -0.07,0.07 -0.07,0.07 -0.07,0.06 -0.08,0.05 -0.08,0.06 -0.08,0.04 -0.08,0.05 -0.09,0.04 -0.08,0.04 -0.09,0.03 -0.09,0.03 -0.09,0.03 -0.1,0.02 -0.09,0.01 -0.09,0.01 -0.1,0.01 -0.09,0 c -1.22,0 -2.02,-0.97 -2.02,-1.98 0,-1.22 0.97,-2.02 1.99,-2.02 1.21,0 2.01,0.97 2.01,1.99 z"
           id="path11204"
           inkscape:connector-curvature="0"
           style="fill:#000000;stroke-width:0" /></g>    </g>
    <g
       id="g11428"
       transform="matrix(1.4855707,0,0,1.4855707,192.90876,318.9522)">
      <g
         word-spacing="normal"
         letter-spacing="normal"
         font-size-adjust="none"
         font-stretch="normal"
         font-weight="normal"
         font-variant="normal"
         font-style="normal"
         stroke-miterlimit="10.433"
         xml:space="preserve"
         transform="matrix(0.27285714,0,0,-0.27285714,-47.75,282)"
         id="g11430"
         style="font-style:normal;font-variant:normal;font-weight:normal;font-stretch:normal;letter-spacing:normal;word-spacing:normal;text-anchor:start;fill:none;stroke:#000000;stroke-linecap:butt;stroke-linejoin:miter;stroke-miterlimit:10.43299961;stroke-opacity:1;stroke-dasharray:none;stroke-dashoffset:0"><path
           id="path11432"
           d="m 484.04,449.49 0,0.12 -0.01,0.13 -0.02,0.12 -0.02,0.13 -0.03,0.12 -0.03,0.12 -0.04,0.12 -0.05,0.12 -0.05,0.11 -0.06,0.12 -0.06,0.11 -0.07,0.1 -0.07,0.11 -0.08,0.1 -0.08,0.1 -0.08,0.09 -0.1,0.09 -0.09,0.09 -0.1,0.08 -0.1,0.08 -0.11,0.07 -0.11,0.07 -0.11,0.06 -0.12,0.06 -0.12,0.05 -0.13,0.04 -0.12,0.04 -0.13,0.03 -0.14,0.03 -0.13,0.01 -0.14,0.02 -0.14,0 c -1.69,0 -2.69,-1.39 -2.69,-2.64 0,-1.35 1.15,-2.64 2.65,-2.64 1.68,0 2.68,1.39 2.68,2.64 z"
           inkscape:connector-curvature="0"
           style="fill:#000000;stroke-width:0" /><path
           id="path11434"
           d="m 466.63,407.59 -0.09,0 -0.09,0 -0.16,0 -0.16,0 -0.16,-0.01 -0.15,-0.01 -0.15,-0.02 -0.15,-0.02 -0.08,-0.02 -0.07,-0.01 -0.08,-0.02 -0.08,-0.02 -0.08,-0.03 -0.08,-0.02 -0.08,-0.03 -0.09,-0.03 -0.08,-0.04 -0.09,-0.04 -0.09,-0.04 -0.1,-0.04 -0.09,-0.05 -0.1,-0.05 -0.11,-0.06 -0.1,-0.06 -0.11,-0.06 -0.12,-0.07 c -0.4,-0.23 -1.59,-1.05 -1.59,-1.64 0,-0.34 0.25,-0.34 0.5,-0.34 3.33,-0.16 5.38,-0.6 10.36,-2.35 3.44,-1.25 6.97,-2.48 10.91,-2.48 5.82,0 10.65,5.12 10.65,7.17 0,0.25 -0.18,0.39 -0.43,0.39 -0.5,0 -1.55,-0.39 -2.35,-0.94 -1.14,-0.75 -1.25,-1.09 -1.5,-1.75 -0.69,-1.98 -1.73,-2.14 -3.09,-2.14 -3.28,0 -5.52,0.8 -12.71,3.24 8.63,2.43 19.49,11.06 19.49,23.07 0,6.77 -3.69,12.25 -11.02,12.25 -10.15,0 -21.97,-10.4 -21.97,-20.78 0,-5.28 3.15,-9.26 8.68,-9.26 5.03,0 10.72,3.29 10.72,4.48 0,0.3 -0.36,0.3 -0.55,0.3 -0.7,0 -1.55,-0.5 -2.25,-0.85 -2.05,-1.14 -4.14,-1.18 -4.63,-1.18 -4.48,0 -7.73,3.48 -7.73,8.61 0,6.23 5.64,15.95 14.45,15.95 6.28,0 10.06,-4.98 10.06,-11.61 0,-4.94 -2.04,-10.56 -6.78,-14.75 -3.23,-2.94 -6.87,-4.64 -15.03,-4.64 z"
           inkscape:connector-curvature="0"
           style="fill:#000000;stroke-width:0" /><path
           id="path11436"
           d="m 518.89,407.93 h -1.19 c -0.39,-3.42 -0.91,-7.92 -7.5,-7.92 h -3.49 c -1.62,0 -1.67,0.28 -1.67,1.36 v 18.33 c 0,1.16 0,1.61 3.28,1.61 h 1.22 v 1.25 c -0.73,-0.03 -5.18,-0.14 -6.09,-0.14 -1.33,0 -5.27,0.14 -5.3,0.14 v -1.25 h 0.83 c 2.69,0 2.77,-0.35 2.77,-1.58 v -18.14 c 0,-1.19 -0.08,-1.58 -2.77,-1.58 h -0.83 v -1.25 h 19.69 z"
           inkscape:connector-curvature="0"
           style="fill:#000000;stroke-width:0" /><path
           id="path11438"
           d="m 530.38,421.79 -0.03,0.07 -0.03,0.07 -0.03,0.06 -0.03,0.06 -0.03,0.05 -0.03,0.05 -0.03,0.04 -0.03,0.05 -0.03,0.03 -0.03,0.04 -0.04,0.03 -0.03,0.03 -0.03,0.03 -0.04,0.02 -0.03,0.02 -0.04,0.02 -0.04,0.02 -0.04,0.01 -0.04,0.02 -0.04,0.01 -0.04,0.01 -0.05,0.01 -0.04,0 -0.05,0.01 -0.05,0 -0.06,0 -0.05,0.01 -0.06,0 -0.06,0 -0.06,0 -0.06,0 -0.07,0 h -6.11 v -1.25 h 0.85 c 2.67,0 2.75,-0.35 2.75,-1.58 v -17.2 c 0,-0.94 0,-2.52 -3.6,-2.52 v -1.25 c 1.44,0.11 2.83,0.14 4.25,0.14 1.44,0 2.83,-0.03 4.25,-0.14 v 1.25 c -3.57,0 -3.57,1.58 -3.57,2.52 v 18.36 l 0.03,0.03 9.06,-21.36 c 0.17,-0.41 0.34,-0.8 0.86,-0.8 0.25,0 0.56,0.11 0.84,0.74 l 9.21,21.78 0.03,-0.05 v -19.64 c 0,-1.19 -0.07,-1.58 -2.75,-1.58 h -0.85 v -1.25 c 1.67,0.06 3.63,0.14 5.07,0.14 1.42,0 3.37,-0.08 5.04,-0.14 v 1.25 h -0.84 c -2.67,0 -2.75,0.36 -2.75,1.58 v 18.14 c 0,1.19 0.08,1.58 2.75,1.58 h 0.84 v 1.25 h -6.06 c -0.7,0 -1.02,0 -1.3,-0.69 l -8.36,-19.76 z"
           inkscape:connector-curvature="0"
           style="fill:#000000;stroke-width:0" /><path
           id="path11440"
           d="m 564.3,400.75 0,0.11 -0.01,0.11 -0.01,0.11 -0.02,0.1 -0.03,0.11 -0.03,0.09 -0.03,0.1 -0.04,0.1 -0.04,0.09 -0.04,0.08 -0.06,0.09 -0.05,0.08 -0.06,0.08 -0.06,0.07 -0.06,0.07 -0.07,0.07 -0.07,0.07 -0.07,0.06 -0.08,0.05 -0.08,0.06 -0.08,0.04 -0.08,0.05 -0.09,0.04 -0.09,0.04 -0.08,0.03 -0.09,0.03 -0.09,0.03 -0.1,0.02 -0.09,0.01 -0.09,0.01 -0.1,0.01 -0.09,0 c -1.22,0 -2.02,-0.97 -2.02,-1.98 0,-1.22 0.97,-2.02 1.98,-2.02 1.22,0 2.02,0.97 2.02,1.99 z"
           inkscape:connector-curvature="0"
           style="fill:#000000;stroke-width:0" /></g>    </g>
  </g>
</svg>
